<?xml version="1.0" encoding="utf-8"?>
<!-- Generator: Adobe Illustrator 24.0.2, SVG Export Plug-In . SVG Version: 6.00 Build 0)  -->
<svg version="1.1" id="Calque_1" xmlns="http://www.w3.org/2000/svg" xmlns:xlink="http://www.w3.org/1999/xlink" x="0px" y="0px"
	 viewBox="0 0 16 16" style="enable-background:new 0 0 16 16;" xml:space="preserve">
<style type="text/css">
	.st0{fill:#FFFFFF;stroke:#FFFFFF;stroke-width:0.75;stroke-miterlimit:10;}
</style>
<path class="st0" d="M4.3,5.4C4,5.4,3.8,5.6,3.8,5.8v7.3c0,0.3,0.2,0.5,0.5,0.5h8.2c0.3,0,0.5-0.2,0.5-0.5V5.8
	c0-0.3-0.2-0.5-0.5-0.5h-1.8c-0.3,0-0.5-0.2-0.5-0.5s0.2-0.5,0.5-0.5h1.8c0.8,0,1.4,0.6,1.4,1.4V13c0,0.8-0.6,1.4-1.4,1.4l0,0H4.3
	c-0.8,0-1.4-0.6-1.4-1.4l0,0V5.8c0-0.8,0.6-1.4,1.4-1.4h1.8c0.3,0,0.5,0.2,0.5,0.5S6.4,5.4,6.1,5.4H4.3z"/>
<path class="st0" d="M8.1,10.7c0.2,0.2,0.5,0.2,0.6,0l0,0L11.5,8c0.2-0.2,0.2-0.5,0-0.6c-0.2-0.2-0.5-0.2-0.6,0l-2,2v-8
	c0-0.3-0.2-0.5-0.5-0.5S8,1,8,1.2v8l-2-2C5.8,7,5.5,7,5.4,7.2C5.2,7.5,5.2,7.8,5.3,8L8.1,10.7z"/>
</svg>
